<?xml version="1.0" encoding="utf-8"?>
<!-- Generator: Adobe Illustrator 16.0.0, SVG Export Plug-In . SVG Version: 6.00 Build 0)  -->
<!DOCTYPE svg PUBLIC "-//W3C//DTD SVG 1.1//EN" "http://www.w3.org/Graphics/SVG/1.1/DTD/svg11.dtd">
<svg version="1.1" xmlns="http://www.w3.org/2000/svg" xmlns:xlink="http://www.w3.org/1999/xlink" x="0px" y="0px"
	 width="341.983px" height="318.42px" viewBox="0 0 341.983 318.42" enable-background="new 0 0 341.983 318.42"
	 xml:space="preserve">
<g id="Layer_2">
</g>
<g id="Layer_3">
</g>
<g id="Layer_1">
</g>
<g id="Layer_4">
	<g>
		<ellipse fill-rule="evenodd" clip-rule="evenodd" fill="#E6D7B0" cx="170.676" cy="137.859" rx="106.167" ry="83.924"/>
		<polyline fill-rule="evenodd" clip-rule="evenodd" fill="#E6D7B0" points="101.652,74.124 78.888,87.848 52.652,112.487 
			38.652,131.292 42.318,154.153 56.586,170.171 76.436,188.687 95.284,196.942 106.665,217.595 113.652,230.174 120.472,264.82 
			129.956,272.82 143.92,274.124 157.132,272.261 170.906,270.469 178.117,270.469 		"/>
		<path fill-rule="evenodd" clip-rule="evenodd" fill="#E6D7B0" d="M239.879,74.416l42.772,32.737l11.333,16
			c0,0,5.333,12.334,6,13.334s0,17.667,0,17.667l-6,12.667l-13.303,13.771l-14.368,8.442l-18.986,5.977l-5.063,11.086
			c0,0-11.072,14.273-9.613,16.297s-5.333,14.44-5.333,14.44l-6.427,26.653l-3.907,8.333l-9.333,2.304h-9.833l-14.812-1.464
			l-16.355-17.866l-13-8.307"/>
		<path fill-rule="evenodd" clip-rule="evenodd" fill="#E6D7B0" d="M129.099,60.617l13.977-16.222l7.247-4.285l-2.256,8.626
			l-0.071,7.12l5.655-3.245l17.024-7.375h9.642l2.5,2.75l-2.375,3.808h7.375c0,0,7.669-0.201,8.037-0.243
			c0.368-0.043,6.837-0.507,6.837-0.507l4.536,0.75l-10.785,6.692l-13.25,9.125l-22.875,0.625"/>
		<path fill-rule="evenodd" clip-rule="evenodd" fill="#494740" d="M76.436,188.687c-5.977-3.147-11.134-6.708-16.837-8.716
			c-21.31-7.502-27.687-29.67-25.434-45.409c0.701-4.893,3.114-10.431,6.549-13.872c9.655-9.671,19.833-18.938,30.601-27.346
			c9.414-7.351,19.907-13.318,30.339-19.221c-9.626,8.512-19.531,16.733-28.79,25.626c-7.646,7.344-14.53,15.481-21.748,23.271
			c-8.306,8.963-8.539,19.331-5.112,30.243c2.787,8.874,8.307,15.776,15.759,21.256c3.804,2.798,7.592,5.654,11.104,8.799
			C74.422,184.714,75.279,186.893,76.436,188.687z"/>
		<path fill-rule="evenodd" clip-rule="evenodd" fill="#494740" d="M240.299,73.551c6.159,3.872,12.642,7.318,18.414,11.7
			c12.998,9.864,26.521,19.28,38.217,30.554c15.499,14.941,14.812,39.522-0.423,54.976c-3.761,3.815-9.128,6.108-13.906,8.839
			c-2.816,1.61-6.054,2.485-8.871,4.094c-2.656,1.517-5.01,3.563-7.416,5.318c0.386-4.081,4.249-8.727,10.927-12.893
			c11.65-7.267,18.701-17.479,20.375-31.274c0.867-7.151-0.532-13.549-4.981-19.359c-14.646-19.134-32.73-34.709-51.243-49.854
			c-0.504-0.412-1.009-0.824-1.512-1.236C240.019,74.127,240.159,73.839,240.299,73.551z"/>
		<path fill-rule="evenodd" clip-rule="evenodd" fill="#100F08" d="M170.901,254.793c1.286-4.187-2.91-5.255-6.885-7.556
			c-5.372-3.109-10.515-7.149-14.592-11.808c-3.795-4.338-4.392-10.342-1.448-15.683c2.957-5.367,8.474-6.232,14.027-6.331
			c5.858-0.104,11.722-0.109,17.579-0.007c5.522,0.096,11.101,0.776,14.162,6.085c3.183,5.518,2.348,11.615-1.594,16.075
			c-4.103,4.644-9.253,8.681-14.642,11.768C173.547,249.607,170.046,251.125,170.901,254.793z M189.173,222.246
			c-2.402,2.534-1.74,5.418-3.522,7.928c-1.306,1.839-4.86,3.444-5.712,5.606c2.402,0.712,5.08,2.483,7.155,1.943
			C193.805,235.978,194.487,227.47,189.173,222.246z M153.066,222.394c-4.082,3.412-5.087,9.855-1.171,13.445
			c1.642,1.504,4.578,2.078,6.939,2.114c1.209,0.018,3.626-2.342,3.443-3.177c-0.461-2.101-3.751-2.962-5.128-4.741
			C155.452,227.844,155.265,224.785,153.066,222.394z"/>
		<path fill-rule="evenodd" clip-rule="evenodd" fill="#494740" d="M103.025,97.065c-10.155,14.828-13.745,31.306-13.609,48.857
			c0.132,16.986,0.283,33.972,0.286,50.957c0.002,7.445-1.399,14.66-5.278,21.136c-0.809,1.35-2.527,2.156-3.827,3.213
			c-0.874-1.294-2.447-2.56-2.5-3.887c-0.231-5.823-0.711-11.776,0.215-17.467c0.962-5.906,0.159-11.166-1.452-16.792
			c-1.636-5.71-2.02-11.791-2.778-17.731c-0.163-1.271,0.423-2.637,1.031-3.92c2.208,7.212,1.383,15.216,6.297,21.407
			c0.648-0.051,1.296-0.103,1.944-0.154c0-3.577,0.109-7.158-0.019-10.73c-0.565-15.887-0.311-31.723,3.651-47.234
			C89.725,114.001,93.891,103.991,103.025,97.065z"/>
		<path fill-rule="evenodd" clip-rule="evenodd" fill="#494740" d="M237.907,95.952c11.118,9.105,16.024,20.591,17.709,33.022
			c1.878,13.866,2.051,27.969,2.853,41.975c0.22,3.834,0.034,7.691,0.798,11.678c5.756-5.323,5.107-12.982,7.269-19.536
			c0.535,0.098,1.069,0.195,1.604,0.292c-0.776,5.643-0.953,11.454-2.476,16.889c-2.056,7.34-3.346,14.375-1.816,22.101
			c0.982,4.968,0.114,10.342-0.267,15.509c-0.087,1.182-1.579,2.26-2.425,3.386c-1.202-0.937-3.124-1.654-3.487-2.847
			c-2.072-6.806-5.061-13.673-5.346-20.617c-0.69-16.809-0.225-33.674,0.083-50.511c0.269-14.641-2.132-28.647-8.73-41.792
			C242.221,102.603,240.326,99.925,237.907,95.952z"/>
		<path fill-rule="evenodd" clip-rule="evenodd" fill="#494740" d="M184.22,270.076c-2.034-1.799-4.068-3.594-6.103-5.391
			c0.077-0.242,0.154-0.486,0.231-0.729c3.016,1.422,6.32,2.438,8.996,4.338c13.634,9.688,33.555,0.48,35.518-16.674
			c1.253-10.957,1.971-22.209,7.432-32.276c0.496-0.915,0.868-1.898,1.909-2.682c-0.073,1.009-0.147,2.02-0.271,3.703
			c7.238-7.597,11.805-16.021,15.395-25.355c-0.568,3.119-0.573,6.486-1.823,9.302c-2.433,5.48-4.956,11.113-8.552,15.837
			c-4.895,6.431-7.35,13.355-7.719,21.247c-0.238,5.067-0.531,10.131-0.845,15.196c-1.086,17.543-20.397,27.697-35.723,18.76
			c-2.93-1.709-5.739-3.623-8.604-5.441L184.22,270.076z"/>
		<path fill-rule="evenodd" clip-rule="evenodd" fill="#494740" d="M94.534,195.58c4.369,7.93,9.02,16.369,13.669,24.807
			c0.458-0.203,0.915-0.408,1.373-0.611c0-0.981,0-1.963,0-3.411c0.496,0.523,0.811,0.747,0.981,1.051
			c6.104,10.858,6.412,23.137,8.606,34.963c3.207,17.284,19.249,24.724,34.57,16.216c3.654-2.029,7.521-3.678,11.645-4.84
			c-5.197,3.73-10.215,7.748-15.625,11.141c-15.493,9.715-35.119-0.309-36.43-18.436c-0.507-7.005-0.349-14.161-1.823-20.959
			c-1.131-5.215-3.716-10.416-6.779-14.844C99.235,212.727,94.938,204.599,94.534,195.58z"/>
		<path fill-rule="evenodd" clip-rule="evenodd" d="M134.384,161.374c-4.973,1.302-9.23,2.758-13.609,3.467
			c-4.525,0.733-7.994-1.679-10.065-5.544c-1.464-2.733-2.742-4.793-6.587-2.454c4.972-7.254,9.757-13.832,19.081-13.401
			c6.055,0.28,9.706,4.169,11.924,9.519c2.705,6.528,2.255,12.785-1.964,20.034C133.665,168.221,134.026,164.781,134.384,161.374z"
			/>
		<path fill-rule="evenodd" clip-rule="evenodd" d="M236.505,154.996c-1.984,1.615-4.1,2.687-5.266,4.403
			c-3.85,5.669-10.862,7.394-17.807,3.992c-1.704-0.836-3.389-1.712-5.784-2.926c0,3.243,0,5.704,0,9.025
			c-4.817-8.647-1.937-20.082,5.419-24.326C221.092,140.535,230.816,145.004,236.505,154.996z"/>
		<path fill-rule="evenodd" clip-rule="evenodd" fill="#494740" d="M184.062,269.91c-0.343,0.951-0.514,2.619-1.055,2.75
			c-8.521,2.051-17.015,1.971-25.875-0.398c5.604-5.334,17.067-7.021,23.191-3.848c1.25,0.648,2.595,1.115,3.896,1.664
			C184.22,270.076,184.062,269.91,184.062,269.91z"/>
		<path fill-rule="evenodd" clip-rule="evenodd" fill="#494740" d="M142.192,142.559c-0.931-7.726-7.396-7.537-13.607-9.362
			c5.715-1.178,10.817-3.057,14.647,0.904c1.403,1.451,0.227,5.396,0.227,8.205C143.036,142.39,142.614,142.475,142.192,142.559z"/>
		<path fill-rule="evenodd" clip-rule="evenodd" fill="#494740" d="M198.102,141.859c0-2.571-0.712-7.084,0.12-7.389
			c4.315-1.584,9.025-2.094,13.598-2.978c0.142,0.672,0.282,1.345,0.423,2.017c-1.706,0.373-3.466,0.591-5.103,1.162
			c-1.673,0.583-3.512,1.209-4.752,2.374c-1.349,1.269-2.093,3.182-3.101,4.813C198.892,141.859,198.497,141.859,198.102,141.859z"
			/>
		<path fill-rule="evenodd" clip-rule="evenodd" fill="#494740" d="M189.173,222.246c5.314,5.225,4.632,13.732-2.079,15.478
			c-2.075,0.54-4.753-1.231-7.155-1.943c0.852-2.163,4.406-3.767,5.712-5.606C187.433,227.664,186.771,224.78,189.173,222.246z"/>
		<path fill-rule="evenodd" clip-rule="evenodd" fill="#494740" d="M153.066,222.394c2.198,2.391,2.386,5.45,4.084,7.641
			c1.377,1.779,4.667,2.64,5.128,4.741c0.183,0.835-2.234,3.195-3.443,3.177c-2.361-0.037-5.298-0.61-6.939-2.114
			C147.979,232.25,148.984,225.806,153.066,222.394z"/>
		<ellipse fill-rule="evenodd" clip-rule="evenodd" fill="#FFFFFF" cx="217.425" cy="153.178" rx="5.954" ry="7.192"/>
		<g>
			<ellipse fill-rule="evenodd" clip-rule="evenodd" fill="#978157" cx="205.875" cy="245.594" rx="1.948" ry="2.099"/>
			<ellipse fill-rule="evenodd" clip-rule="evenodd" fill="#978157" cx="212.77" cy="252.882" rx="3" ry="2.834"/>
			<ellipse fill-rule="evenodd" clip-rule="evenodd" fill="#978157" cx="203.927" cy="251.89" rx="1.948" ry="2.099"/>
			<ellipse fill-rule="evenodd" clip-rule="evenodd" fill="#978157" cx="204.264" cy="259.23" rx="2.285" ry="2.36"/>
			<ellipse fill-rule="evenodd" clip-rule="evenodd" fill="#978157" cx="197.984" cy="248.61" rx="1.395" ry="1.436"/>
			<ellipse fill-rule="evenodd" clip-rule="evenodd" fill="#978157" cx="196.59" cy="254.318" rx="1.395" ry="1.437"/>
			<ellipse fill-rule="evenodd" clip-rule="evenodd" fill="#978157" cx="196.59" cy="260.152" rx="1.395" ry="1.437"/>
			<ellipse fill-rule="evenodd" clip-rule="evenodd" fill="#978157" cx="190.722" cy="260.152" rx="1.395" ry="1.437"/>
			<ellipse fill-rule="evenodd" clip-rule="evenodd" fill="#978157" cx="191.374" cy="252.882" rx="1.395" ry="1.436"/>
			<ellipse fill-rule="evenodd" clip-rule="evenodd" fill="#978157" cx="192.117" cy="245.594" rx="1.395" ry="1.437"/>
			<ellipse fill-rule="evenodd" clip-rule="evenodd" fill="#978157" cx="201.785" cy="239.967" rx="1.395" ry="1.437"/>
		</g>
		<g>
			<ellipse fill-rule="evenodd" clip-rule="evenodd" fill="#978157" cx="135.415" cy="245.607" rx="1.948" ry="2.099"/>
			<ellipse fill-rule="evenodd" clip-rule="evenodd" fill="#978157" cx="128.52" cy="252.895" rx="3" ry="2.835"/>
			<ellipse fill-rule="evenodd" clip-rule="evenodd" fill="#978157" cx="137.362" cy="251.904" rx="1.948" ry="2.098"/>
			<ellipse fill-rule="evenodd" clip-rule="evenodd" fill="#978157" cx="137.025" cy="259.243" rx="2.285" ry="2.361"/>
			<ellipse fill-rule="evenodd" clip-rule="evenodd" fill="#978157" cx="143.305" cy="248.624" rx="1.395" ry="1.437"/>
			<ellipse fill-rule="evenodd" clip-rule="evenodd" fill="#978157" cx="144.7" cy="254.332" rx="1.395" ry="1.436"/>
			<ellipse fill-rule="evenodd" clip-rule="evenodd" fill="#978157" cx="144.7" cy="260.166" rx="1.395" ry="1.437"/>
			<ellipse fill-rule="evenodd" clip-rule="evenodd" fill="#978157" cx="150.567" cy="260.166" rx="1.395" ry="1.437"/>
			<ellipse fill-rule="evenodd" clip-rule="evenodd" fill="#978157" cx="149.915" cy="252.895" rx="1.395" ry="1.437"/>
			<ellipse fill-rule="evenodd" clip-rule="evenodd" fill="#978157" cx="149.173" cy="245.607" rx="1.395" ry="1.437"/>
			<ellipse fill-rule="evenodd" clip-rule="evenodd" fill="#978157" cx="139.504" cy="239.98" rx="1.395" ry="1.437"/>
		</g>
		<g>
			<path fill="#494740" d="M126.616,63.628c3.019-5.209,6.385-10.212,10.298-14.867c1.966-2.318,4.057-4.562,6.475-6.556
				c0.598-0.504,1.235-0.975,1.883-1.438l1.003-0.667l1.059-0.614c0.73-0.385,1.493-0.737,2.307-1.025
				c0.406-0.144,0.843-0.245,1.266-0.364c0.438-0.094,0.896-0.15,1.347-0.219l4.256-0.651l-2.721,3.722l-0.652,0.892l-0.644,0.937
				c-0.423,0.63-0.823,1.274-1.211,1.92c-0.774,1.292-1.463,2.618-2.003,3.946c-0.527,1.318-0.913,2.679-0.923,3.805
				c-0.012,0.283,0.014,0.54,0.053,0.771c0.035,0.235,0.1,0.434,0.173,0.608c0.074,0.173,0.169,0.315,0.271,0.449
				c0.105,0.13,0.246,0.245,0.387,0.368l-3.961,0.968c0.321-0.746,0.553-1.114,0.848-1.606c0.283-0.465,0.593-0.873,0.894-1.31
				l0.979-1.19c0.341-0.376,0.698-0.73,1.051-1.094c0.713-0.716,1.488-1.338,2.258-1.97c0.807-0.557,1.583-1.197,2.429-1.678
				c0.845-0.478,1.663-1.048,2.54-1.442c0.872-0.411,1.734-0.869,2.622-1.236l2.683-1.034c0.898-0.328,1.814-0.559,2.725-0.841
				l1.368-0.404c0.458-0.115,0.919-0.205,1.379-0.308l2.765-0.604c0.923-0.178,1.849-0.286,2.774-0.432
				c0.927-0.124,1.855-0.297,2.781-0.394l2.779-0.25c0.927-0.069,1.86-0.196,2.784-0.222l5.56-0.173l8.894-0.278l-6.25,6.937
				c-0.95,1.055-1.902,2.108-2.87,3.145c-0.964,1.041-1.92,2.089-2.906,3.108c-0.986,1.02-1.944,2.066-2.953,3.063l-3.001,3.016
				l-3.983-7.029c1.45-0.311,2.833-0.577,4.249-0.849c1.406-0.276,2.824-0.491,4.238-0.72c2.834-0.437,5.685-0.811,8.56-1.054
				c1.438-0.123,2.879-0.235,4.33-0.311c0.721-0.046,1.449-0.088,2.182-0.089c0.733-0.004,1.453-0.036,2.196-0.011l2.21,0.047
				l2.238,0.142c0.754,0.081,1.523,0.209,2.274,0.315c0.767,0.132,1.567,0.352,2.332,0.53l5.277,1.232l-4.542,2.466
				c-1.729,0.939-3.513,1.795-5.267,2.697c-1.78,0.863-3.558,1.73-5.381,2.53l-0.455-0.673c1.42-1.395,2.886-2.723,4.348-4.055
				c1.489-1.293,2.947-2.632,4.461-3.888l0.736,3.699c-0.633,0.005-1.222-0.034-1.859-0.005c-0.656,0.054-1.294,0.084-1.949,0.153
				l-1.988,0.223l-2.008,0.312c-0.665,0.093-1.344,0.245-2.014,0.366l-2.02,0.377c-1.348,0.253-2.696,0.543-4.044,0.842
				l-4.045,0.928l-4.046,0.958l-4.04,0.991c-1.338,0.328-2.708,0.667-3.997,1.013l-14.637,3.926l10.652-10.955l2.966-3.05
				c0.98-1.025,2.011-2,3.014-3.003c1.003-1.003,2.035-1.977,3.061-2.958c1.021-0.984,2.058-1.953,3.097-2.92l2.644,6.659
				l-5.146-0.276c-0.86-0.051-1.707-0.002-2.563-0.006l-2.565,0.023c-0.854,0.014-1.692,0.12-2.54,0.182
				c-0.844,0.081-1.699,0.123-2.536,0.232l-2.494,0.395c-0.416,0.069-0.836,0.125-1.248,0.205l-1.216,0.292
				c-0.807,0.205-1.638,0.36-2.429,0.603l-2.359,0.763c-0.778,0.271-1.513,0.62-2.275,0.924c-0.772,0.291-1.443,0.728-2.176,1.08
				c-0.732,0.357-1.357,0.841-2.049,1.25c-0.631,0.468-1.285,0.928-1.857,1.447l-0.859,0.779l-0.782,0.826
				c-0.22,0.287-0.477,0.572-0.676,0.857c-0.191,0.256-0.43,0.649-0.478,0.716l-2.009,2.783l-1.953-1.815
				c-0.446-0.414-0.862-0.862-1.211-1.387c-0.342-0.521-0.619-1.085-0.807-1.661c-0.187-0.572-0.301-1.152-0.345-1.706
				c-0.049-0.555-0.046-1.096,0.006-1.603c0.036-0.519,0.13-1,0.23-1.473c0.103-0.473,0.234-0.921,0.374-1.362
				c0.29-0.872,0.635-1.691,1.012-2.478c0.764-1.563,1.646-3.002,2.595-4.372c0.473-0.687,0.972-1.349,1.483-2.001l0.781-0.967
				c0.271-0.324,0.526-0.625,0.832-0.967l1.535,3.071c-0.29,0.031-0.58,0.036-0.877,0.073c-0.301,0.066-0.603,0.103-0.908,0.186
				c-0.612,0.164-1.23,0.39-1.848,0.654l-0.921,0.441l-0.909,0.507c-0.598,0.363-1.199,0.734-1.779,1.152
				c-2.34,1.64-4.516,3.626-6.586,5.717c-2.072,2.097-4.021,4.336-5.915,6.627c-1.891,2.293-3.716,4.66-5.424,7.094L126.616,63.628z
				"/>
		</g>
		<path fill-rule="evenodd" clip-rule="evenodd" fill="#930000" stroke="#930000" stroke-width="5" stroke-miterlimit="10" d="
			M110.643,116.972c13.084-0.33,25.801,2.095,38.479,4.903c5.746,1.272,11.524,2.417,17.32,3.437
			c5.852,1.029,11.68,0.323,17.447-0.813c8.125-1.601,16.201-3.468,24.354-4.897c12.82-2.248,25.745-3.104,38.727-1.623
			c12.409,1.416,24.8,2.992,37.197,4.505c1.685,0.205,2.017,0.554,2.059,2.24c0.096,3.849,0.172,7.698,0.229,11.549
			c0.023,1.586-0.255,1.854-1.865,2.077c-1.686,0.235-2.851,1.229-3.738,2.608c-1.309,2.031-1.706,4.35-2.19,6.664
			c-1.599,7.642-3.072,15.319-4.99,22.882c-1.464,5.774-4.319,10.939-8.658,15.168c-4.733,4.614-10.537,7.071-16.93,8.157
			c-10.455,1.776-20.896,1.682-31.221-0.945c-10.293-2.618-17.846-8.902-23.374-17.816c-4.729-7.626-7.977-15.905-10.839-24.362
			c-0.526-1.556-1.155-3.088-1.864-4.571c-2.714-5.675-11.342-6.329-15.175-1.598c-2.042,2.521-3.368,5.385-4.451,8.382
			c-2.217,6.135-4.663,12.167-7.848,17.874c-4.342,7.781-10.062,14.216-18.083,18.38c-5.223,2.711-10.81,4.238-16.618,4.954
			c-6.94,0.854-13.875,0.945-20.75-0.613c-7.365-1.669-14.097-4.575-19.549-9.998c-3.491-3.472-5.679-7.659-6.981-12.367
			c-2.411-8.711-4.294-17.535-5.706-26.461c-0.547-3.455-2.31-5.981-5.76-7.066c-1.084-0.341-1.551-1.055-1.536-2.087
			c0.053-3.85,0.098-7.7,0.253-11.546c0.08-1.991,0.889-2.709,2.866-2.896c11.497-1.092,22.99-2.229,34.494-3.241
			C100.831,117.419,105.742,117.256,110.643,116.972z M111.137,121.512c-2.277,0-4.556-0.052-6.831,0.011
			c-4.72,0.132-9.406,0.567-14.011,1.686c-7.871,1.91-13.213,6.538-15.334,14.479c-0.676,2.529-1.146,5.143-1.4,7.748
			c-0.759,7.796-0.497,15.551,1.76,23.118c3.512,11.779,11.052,19.312,23.304,21.714c7.146,1.401,14.325,1.116,21.449-0.099
			c12.688-2.164,22.204-9.076,28.569-20.134c4.518-7.847,7.006-16.427,7.753-25.485c0.429-5.191-1.313-9.476-5.208-12.909
			c-3.949-3.481-8.657-5.501-13.616-6.99C128.952,122.061,120.103,121.211,111.137,121.512z M231.809,121.814
			c-6.852-0.038-13.67,0.348-20.411,1.636c-5.078,0.971-10.004,2.408-14.431,5.193c-5.621,3.537-8.609,8.55-8.115,15.281
			c0.644,8.775,2.643,17.252,6.663,25.112c5.062,9.896,12.782,16.831,23.609,19.931c8.91,2.551,17.981,2.733,27.096,1.346
			c4.632-0.705,9.007-2.182,12.859-4.946c4.994-3.584,7.848-8.619,9.424-14.406c2.631-9.664,3.049-19.55,2.287-29.464
			c-0.518-6.729-3.6-12.122-9.899-15.126c-2.457-1.172-5.112-2.033-7.765-2.668C246.127,122.027,238.964,121.896,231.809,121.814z"
			/>
		<ellipse fill-rule="evenodd" clip-rule="evenodd" fill="#FFFFFF" cx="125.52" cy="153.178" rx="5.954" ry="7.192"/>
	</g>
</g>
</svg>
